<?xml version="1.0" standalone="no"?>
<!DOCTYPE svg PUBLIC "-//W3C//DTD SVG 20010904//EN"
 "http://www.w3.org/TR/2001/REC-SVG-20010904/DTD/svg10.dtd">
<svg version="1.0" xmlns="http://www.w3.org/2000/svg"
 width="689.000000pt" height="1281.000000pt" viewBox="0 0 689.000000 1281.000000"
 preserveAspectRatio="xMidYMid meet">
<metadata>
Created by potrace 1.16, written by Peter Selinger 2001-2019
</metadata>
<g transform="translate(0.000000,1281.000000) scale(0.100000,-0.100000)"
fill="#000000" stroke="none">
<path d="M1797 12786 c-96 -40 -166 -107 -204 -195 -8 -19 -355 -1399 -771
-3065 -730 -2928 -756 -3034 -756 -3126 -1 -88 2 -101 31 -161 39 -80 111
-150 191 -187 l57 -27 896 -3 896 -3 -137 -367 c-189 -504 -1167 -3124 -1587
-4252 -386 -1036 -376 -1002 -334 -1136 51 -167 185 -264 361 -264 92 0 167
24 233 74 23 17 83 88 133 156 1042 1427 5964 8230 5983 8270 23 48 26 68 26
155 0 88 -4 107 -28 161 -36 77 -113 154 -192 191 l-60 28 -832 5 -831 5 282
475 c1289 2165 1612 2711 1633 2757 36 79 42 182 14 269 -36 119 -114 201
-227 244 -54 20 -67 20 -2387 20 l-2332 0 -58 -24z"/>
</g>
</svg>
